<?xml version="1.0" encoding="UTF-8" standalone="no"?>
<!DOCTYPE svg PUBLIC "-//W3C//DTD SVG 1.1//EN" "http://www.w3.org/Graphics/SVG/1.1/DTD/svg11.dtd">
<svg width="100%" height="100%" viewBox="0 0 1024 1024" version="1.1" xmlns="http://www.w3.org/2000/svg" xmlns:xlink="http://www.w3.org/1999/xlink" xml:space="preserve" xmlns:serif="http://www.serif.com/" style="fill-rule:evenodd;clip-rule:evenodd;stroke-linejoin:round;stroke-miterlimit:2;">
    <g transform="matrix(1.14255,0,0,1.14255,-63.4653,-33.4024)">
        <path d="M405.929,199.592L405.929,79.635C405.929,71.851 401.372,64.788 394.28,61.58C387.188,58.373 378.875,59.614 373.029,64.754C315.021,115.765 196.64,219.865 153.806,257.531C149.686,261.155 147.252,266.324 147.085,271.809C146.918,277.293 149.033,282.601 152.926,286.469C194.785,328.054 313.425,445.919 372.149,504.26C377.826,509.9 386.339,511.572 393.727,508.497C401.116,505.423 405.929,498.206 405.929,490.203L405.929,369.042C449.396,370.905 549.214,380.847 631.246,431.226C694.014,469.775 747.868,526.553 754.823,632.396C764.681,747.753 718.715,809.908 656.199,860.466C656.197,860.467 656.196,860.468 656.195,860.469C652.604,863.372 651.832,868.542 654.419,872.368C657.006,876.194 662.091,877.403 666.123,875.151C683.598,865.381 700.483,854.03 716.282,840.653C772.967,792.657 814.007,722.197 822.888,618.392C830.635,508.512 794.692,401.469 742.101,343.15C639.459,229.332 466.746,204.787 405.929,199.592Z" style="fill:white;"/>
    </g>
</svg>
